<?xml version="1.0" encoding="UTF-8"?>
<svg width="1e3" height="634.15" version="1.1" viewBox="0 0 1000 634.14637" xmlns="http://www.w3.org/2000/svg">
 <g transform="translate(4 -420.22)">
  <g transform="matrix(8.1301 0 0 8.1301 28.52 -7517.7)">
   <rect x="-4" y="976.36" width="123" height="78" fill="#477e19"/>
   <rect x="-4" y="976.36" width="6.15" height="78" fill="#007a00" opacity=".26"/>
   <rect x="8.3" y="976.36" width="6.15" height="78" fill="#007a00" opacity=".26"/>
   <rect x="20.6" y="976.36" width="6.15" height="78" fill="#007a00" opacity=".26"/>
   <rect x="32.9" y="976.36" width="6.15" height="78" fill="#007a00" opacity=".26"/>
   <rect x="45.2" y="976.36" width="6.15" height="78" fill="#007a00" opacity=".26"/>
   <rect x="57.5" y="976.36" width="6.15" height="78" fill="#007a00" opacity=".26"/>
   <rect x="69.8" y="976.36" width="6.15" height="78" fill="#007a00" opacity=".26"/>
   <rect x="82.1" y="976.36" width="6.15" height="78" fill="#007a00" opacity=".26"/>
   <rect x="94.4" y="976.36" width="6.15" height="78" fill="#007a00" opacity=".26"/>
   <rect x="106.7" y="976.36" width="6.15" height="78" fill="#007a00" opacity=".26"/>
   <rect x="-4" y="1047.9" width="123" height="6.5" fill="#007a00" opacity=".26"/>
   <rect x="-4" y="1034.9" width="123" height="6.5" fill="#007a00" opacity=".26"/>
   <rect x="-4" y="1021.9" width="123" height="6.5" fill="#007a00" opacity=".26"/>
   <rect x="-4" y="1008.9" width="123" height="6.5" fill="#007a00" opacity=".26"/>
   <rect x="-4" y="995.86" width="123" height="6.5" fill="#007a00" opacity=".26"/>
   <rect x="-4" y="982.86" width="123" height="6.5" fill="#007a00" opacity=".26"/>
   <path d="m0 978.36h115v74h-115z" fill="none" stroke="#fffffa" stroke-width=".25"/>
   <path d="m67.5 1015.4a10 10 0 0 1 -10 10 10 10 0 0 1 -10 -10 10 10 0 0 1 10 -10 10 10 0 0 1 10 10z" fill="none" stroke="#fffffa" stroke-width=".25"/>
   <rect y="993.36" width="18" height="44" fill="none" stroke="#fffffa" stroke-width=".25"/>
   <rect x="97" y="993.36" width="18" height="44" fill="none" stroke="#fffffa" stroke-width=".25"/>
   <rect y="1005.4" width="6" height="20" fill="none" stroke="#fffffa" stroke-width=".25"/>
   <rect x="109" y="1005.4" width="6" height="20" fill="none" stroke="#fffffa" stroke-width=".25"/>
   <rect x="-3" y="1011.4" width="3" height="8" fill="none" stroke="#fffffa" stroke-width=".25"/>
   <rect x="115" y="1011.4" width="3" height="8" fill="none" stroke="#fffffa" stroke-width=".25"/>
   <path transform="translate(0 978.36)" d="m97 29.012a10 10 0 0 0 -4 7.9883 10 10 0 0 0 4 7.9844v-15.973z" fill="none" stroke="#fffffa" stroke-width=".25"/>
   <circle cx="103" cy="1015.4" r=".375" fill="none" stroke="#fffffa" stroke-width=".25"/>
   <circle cx="12" cy="1015.4" r=".375" fill="none" stroke="#fffffa" stroke-width=".25"/>
   <path transform="translate(0 978.36)" d="m18 29.016v15.973a10 10 0 0 0 4 -7.9883 10 10 0 0 0 -4 -7.9844z" fill="none" stroke="#fffffa" stroke-width=".25"/>
   <path transform="translate(0 978.36)" d="m0 73v1h1a1 1 0 0 0 -1 -1z" fill="none" stroke="#fffffa" stroke-width=".25"/>
   <path transform="translate(0 978.36)" d="m0 0v1a1 1 0 0 0 1 -1h-1z" fill="none" stroke="#fffffa" stroke-width=".25"/>
   <path transform="translate(0 978.36)" d="m115 73a1 1 0 0 0 -1 1h1v-1z" fill="none" stroke="#fffffa" stroke-width=".25"/>
   <path transform="translate(0 978.36)" d="m114 0a1 1 0 0 0 1 1v-1h-1z" fill="none" stroke="#fffffa" stroke-width=".25"/>
   <circle cx="57.5" cy="1015.4" r=".375" fill="none" stroke="#fffffa" stroke-width=".25"/>
   <path transform="translate(0 978.36)" d="m57.375 0v36.646a0.375 0.375 0 0 1 0.125 -0.021484 0.375 0.375 0 0 1 0.125 0.02148v-36.646h-0.25zm0 37.354v36.646h0.25v-36.646a0.375 0.375 0 0 1 -0.125 0.021484 0.375 0.375 0 0 1 -0.125 -0.021484z" fill="#fff"/>
   <path d="m105 977.86v0.5" fill="#fff" fill-rule="evenodd" stroke="#fff" stroke-width=".25"/>
   <path d="m10 977.86v0.5" fill="#fff" fill-rule="evenodd" stroke="#fff" stroke-width=".25"/>
   <path d="m105 1052.4v0.5" fill="#fff" fill-rule="evenodd" stroke="#fff" stroke-width=".25"/>
   <path d="m10 1052.4v0.5" fill="#fff" fill-rule="evenodd" stroke="#fff" stroke-width=".25"/>
   <path d="m115.5 1042.4h-0.5" fill="#fff" fill-rule="evenodd" stroke="#fff" stroke-width=".25"/>
   <path d="m0 1042.4h-0.5" fill="#fff" fill-rule="evenodd" stroke="#fff" stroke-width=".25"/>
   <path d="m115.5 988.36h-0.5" fill="#fff" fill-rule="evenodd" stroke="#fff" stroke-width=".25"/>
   <path d="m0 988.36h-0.5" fill="#fff" fill-rule="evenodd" stroke="#fff" stroke-width=".25"/>
  </g>
 </g>
</svg>
